<svg xmlns="http://www.w3.org/2000/svg" viewBox="0 0 512 512"><g fill="none" stroke="#97a4b3" stroke-width="2"><path d="M380.55 112.75q-9.82-.11-18.58 2.76-4.71 1.55-4.47 6.88.03.73-.61.38c-5.77-3.17-12.06-6.83-17.37-9.38-54.3-26.02-116.08-20.06-169.24 5.57q-.57.28-.68-.35c-.36-2.02-.45-4.21-1.83-5.71-3.56-3.88-12.96-3.37-17.4-2.53a1.14 1.14 0 0 1-1.35-1.04l-1.42-21.89q-.02-.4.3-.62c9.76-6.8 8.68-25.23-6.04-22.51-12.45 2.3-18.39 19.94-2.95 24.59q.68.2.68.91l.22 22.11a.77.76-8.4 0 1-.56.75c-6.32 1.81-21.5 7.45-22.4 15.17q-1.08 9.3-2.32 30.58-.02.5-.38.86c-28.89 28.82-45.02 62.23-57.06 100.8-1.48 4.76 14.19 25.01 17.78 29.04 39.14 44.03 93.3 62.86 150.13 64.9 81.61 2.93 159.87-20.66 230.8-59.98a.68.67 69.8 0 0 .33-.73c-7.95-38.98-19.53-78.4-40.68-112.44-.37-.6-.66-2.13-.64-2.82q.66-25.64.42-51.31c-.08-8.89-15.97-12.13-22.45-12.72a1.3 1.3 0 0 1-1.19-1.26q-.39-12.34 1.63-24.49a.72.72 0 0 1 .52-.57c15.82-4.15 15.81-26.7-.6-28.65-14.95-1.78-21.32 18.1-9.05 26.64q.56.38.41 1.04-2.74 12.59-3.35 25.45a.6.59-88 0 1-.6.57M406.77 351.35c6.78-6.07 15.84-13.39 20.15-21.4a1.3 1.29 52.6 0 0 .12-.93c-1.31-5.18-14.31-1.69-18.66-.56-15.07 3.9-30.81 12.68-33.98 28.45-3.1 15.43 3.32 37.48 19.34 43.83 16 6.34 35.93 3.4 45.72-11.76 2.74-4.24 9.13-17.33 5.62-21.63-3.96-4.84-22.17 2.92-27.58 4.93a.72.72 0 0 1-.89-.35l-10.05-19.46q-.33-.64.21-1.12" vector-effect="non-scaling-stroke"/><path d="M107.84 376.82c-6.21-2.47-14.82-7.12-21.49-6.8a.95.94 10 0 0-.82.57q-.92 2.11-.35 5.25 2.72 14.86 13.49 23.76c12.48 10.3 30.19 11 40.65-2.69 9.21-12.04 7.36-31.34.14-43.81q-11.13-19.22-36.25-18.61-2.71.07-3.99 1.99a.99.98-39.1 0 0-.1.93c2.25 5.64 9.18 13.59 14.97 21.49a.71.71 0 0 1 .1.65l-5.61 16.93a.56.55 19.7 0 1-.74.34M170.44 430.56c16.67 13.22 34.34 21.74 52.87 30.39 5.92 2.77 12.93 1.81 19.18.97 38.57-5.15 75.52-15.84 109.66-34.86q.43-.24.57-.72 8-28.22 13.48-57.05 1.92-10.08 2.82-20.65a.54.54 0 0 0-.61-.58c-7.45 1-15.31 1.59-22.43 2.55-47.53 6.4-92.82 7.75-141.22 5.23q-27.99-1.46-55.09-8.9a.62.61 6.7 0 0-.78.61c.84 26.92 8.85 51.53 17.63 76.75 1.03 2.95 1.15 4.07 3.92 6.26M194.23 182.54c-5.4-9.62-15.25-15.58-24.96-6.56-5.33 4.96-7.78 12.56-8.46 19.78-1.44 15.25-2.09 45.51 9.02 57.69 9.39 10.29 23.01 4.85 27.86-6.52 8.3-19.49 6.94-45.86-3.46-64.39M256.19 258.31c34.63 22.52 59.57-64.07 12.19-77.99-5.31-1.56-15.05-1.44-18.35 3.97-11.81 19.35-16.07 59.57 6.16 74.02" vector-effect="non-scaling-stroke"/></g><path fill="#2e4967" d="M0 0h512v512H0V0Zm380.55 112.75q-9.82-.11-18.58 2.76-4.71 1.55-4.47 6.88.03.73-.61.38c-5.77-3.17-12.06-6.83-17.37-9.38-54.3-26.02-116.08-20.06-169.24 5.57q-.57.28-.68-.35c-.36-2.02-.45-4.21-1.83-5.71-3.56-3.88-12.96-3.37-17.4-2.53a1.14 1.14 0 0 1-1.35-1.04l-1.42-21.89q-.02-.4.3-.62c9.76-6.8 8.68-25.23-6.04-22.51-12.45 2.3-18.39 19.94-2.95 24.59q.68.2.68.91l.22 22.11a.77.76-8.4 0 1-.56.75c-6.32 1.81-21.5 7.45-22.4 15.17q-1.08 9.3-2.32 30.58-.02.5-.38.86c-28.89 28.82-45.02 62.23-57.06 100.8-1.48 4.76 14.19 25.01 17.78 29.04 39.14 44.03 93.3 62.86 150.13 64.9 81.61 2.93 159.87-20.66 230.8-59.98a.68.67 69.8 0 0 .33-.73c-7.95-38.98-19.53-78.4-40.68-112.44-.37-.6-.66-2.13-.64-2.82q.66-25.64.42-51.31c-.08-8.89-15.97-12.13-22.45-12.72a1.3 1.3 0 0 1-1.19-1.26q-.39-12.34 1.63-24.49a.72.72 0 0 1 .52-.57c15.82-4.15 15.81-26.7-.6-28.65-14.95-1.78-21.32 18.1-9.05 26.64q.56.38.41 1.04-2.74 12.59-3.35 25.45a.6.59-88 0 1-.6.57Zm26.22 238.6c6.78-6.07 15.84-13.39 20.15-21.4a1.3 1.29 52.6 0 0 .12-.93c-1.31-5.18-14.31-1.69-18.66-.56-15.07 3.9-30.81 12.68-33.98 28.45-3.1 15.43 3.32 37.48 19.34 43.83 16 6.34 35.93 3.4 45.72-11.76 2.74-4.24 9.13-17.33 5.62-21.63-3.96-4.84-22.17 2.92-27.58 4.93a.72.72 0 0 1-.89-.35l-10.05-19.46q-.33-.64.21-1.12Zm-298.93 25.47c-6.21-2.47-14.82-7.12-21.49-6.8a.95.94 10 0 0-.82.57q-.92 2.11-.35 5.25 2.72 14.86 13.49 23.76c12.48 10.3 30.19 11 40.65-2.69 9.21-12.04 7.36-31.34.14-43.81q-11.13-19.22-36.25-18.61-2.71.07-3.99 1.99a.99.98-39.1 0 0-.1.93c2.25 5.64 9.18 13.59 14.97 21.49a.71.71 0 0 1 .1.65l-5.61 16.93a.56.55 19.7 0 1-.74.34Zm62.6 53.74c16.67 13.22 34.34 21.74 52.87 30.39 5.92 2.77 12.93 1.81 19.18.97 38.57-5.15 75.52-15.84 109.66-34.86q.43-.24.57-.72 8-28.22 13.48-57.05 1.92-10.08 2.82-20.65a.54.54 0 0 0-.61-.58c-7.45 1-15.31 1.59-22.43 2.55-47.53 6.4-92.82 7.75-141.22 5.23q-27.99-1.46-55.09-8.9a.62.61 6.7 0 0-.78.61c.84 26.92 8.85 51.53 17.63 76.75 1.03 2.95 1.15 4.07 3.92 6.26Z"/><path fill="#fff" d="M381.15 112.18q.61-12.86 3.35-25.45.15-.66-.41-1.04c-12.27-8.54-5.9-28.42 9.05-26.64 16.41 1.95 16.42 24.5.6 28.65a.72.72 0 0 0-.52.57q-2.02 12.15-1.63 24.49a1.3 1.3 0 0 0 1.19 1.26c6.48.59 22.37 3.83 22.45 12.72q.24 25.67-.42 51.31c-.02.69.27 2.22.64 2.82 21.15 34.04 32.73 73.46 40.68 112.44a.68.67 69.8 0 1-.33.73c-70.93 39.32-149.19 62.91-230.8 59.98-56.83-2.04-110.99-20.87-150.13-64.9-3.59-4.03-19.26-24.28-17.78-29.04 12.04-38.57 28.17-71.98 57.06-100.8q.36-.36.38-.86 1.24-21.28 2.32-30.58c.9-7.72 16.08-13.36 22.4-15.17a.77.76-8.4 0 0 .56-.75l-.22-22.11q0-.71-.68-.91c-15.44-4.65-9.5-22.29 2.95-24.59 14.72-2.72 15.8 15.71 6.04 22.51q-.32.22-.3.62l1.42 21.89a1.14 1.14 0 0 0 1.35 1.04c4.44-.84 13.84-1.35 17.4 2.53 1.38 1.5 1.47 3.69 1.83 5.71q.11.63.68.35c53.16-25.63 114.94-31.59 169.24-5.57 5.31 2.55 11.6 6.21 17.37 9.38q.64.35.61-.38-.24-5.33 4.47-6.88 8.76-2.87 18.58-2.76a.6.59-88 0 0 .6-.57Zm-186.92 70.36c-5.4-9.62-15.25-15.58-24.96-6.56-5.33 4.96-7.78 12.56-8.46 19.78-1.44 15.25-2.09 45.51 9.02 57.69 9.39 10.29 23.01 4.85 27.86-6.52 8.3-19.49 6.94-45.86-3.46-64.39Zm61.96 75.77c34.63 22.52 59.57-64.07 12.19-77.99-5.31-1.56-15.05-1.44-18.35 3.97-11.81 19.35-16.07 59.57 6.16 74.02Z"/><path fill="#2e4967" d="M169.27 175.98c9.71-9.02 19.56-3.06 24.96 6.56 10.4 18.53 11.76 44.9 3.46 64.39-4.85 11.37-18.47 16.81-27.86 6.52-11.11-12.18-10.46-42.44-9.02-57.69.68-7.22 3.13-14.82 8.46-19.78ZM256.19 258.31c-22.23-14.45-17.97-54.67-6.16-74.02 3.3-5.41 13.04-5.53 18.35-3.97 47.38 13.92 22.44 100.51-12.19 77.99Z"/><path fill="#fff" d="m406.56 352.47 10.05 19.46a.72.72 0 0 0 .89.35c5.41-2.01 23.62-9.77 27.58-4.93 3.51 4.3-2.88 17.39-5.62 21.63-9.79 15.16-29.72 18.1-45.72 11.76-16.02-6.35-22.44-28.4-19.34-43.83 3.17-15.77 18.91-24.55 33.98-28.45 4.35-1.13 17.35-4.62 18.66.56a1.3 1.29 52.6 0 1-.12.93c-4.31 8.01-13.37 15.33-20.15 21.4q-.54.48-.21 1.12ZM108.58 376.48l5.61-16.93a.71.71 0 0 0-.1-.65c-5.79-7.9-12.72-15.85-14.97-21.49a.99.98-39.1 0 1 .1-.93q1.28-1.92 3.99-1.99 25.12-.61 36.25 18.61c7.22 12.47 9.07 31.77-.14 43.81-10.46 13.69-28.17 12.99-40.65 2.69q-10.77-8.9-13.49-23.76-.57-3.14.35-5.25a.95.94 10 0 1 .82-.57c6.67-.32 15.28 4.33 21.49 6.8a.56.55 19.7 0 0 .74-.34ZM170.44 430.56c-2.77-2.19-2.89-3.31-3.92-6.26-8.78-25.22-16.79-49.83-17.63-76.75a.62.61 6.7 0 1 .78-.61q27.1 7.44 55.09 8.9c48.4 2.52 93.69 1.17 141.22-5.23 7.12-.96 14.98-1.55 22.43-2.55a.54.54 0 0 1 .61.58q-.9 10.57-2.82 20.65-5.48 28.83-13.48 57.05-.14.48-.57.72c-34.14 19.02-71.09 29.71-109.66 34.86-6.25.84-13.26 1.8-19.18-.97-18.53-8.65-36.2-17.17-52.87-30.39Z"/></svg>